<?xml version="1.0" encoding="utf-8"?>
<!-- Generator: Adobe Illustrator 23.0.0, SVG Export Plug-In . SVG Version: 6.00 Build 0)  -->
<svg version="1.1" id="Layer_1" xmlns="http://www.w3.org/2000/svg" xmlns:xlink="http://www.w3.org/1999/xlink" x="0px" y="0px"
	 viewBox="0 0 259.1 224.4" style="enable-background:new 0 0 259.1 224.4;" xml:space="preserve">
<style type="text/css">
	.st0{opacity:0.1;fill:#63C984;enable-background:new    ;}
	.st1{fill:url(#Path_408_1_);}
	.st2{fill:#FFFFFF;}
	.st3{opacity:0.1;enable-background:new    ;}
	.st4{fill:#CF6F80;}
	.st5{fill:#63C984;}
	.st6{fill:#3F3D56;}
	.st7{fill:#512E4E;}
	.st8{opacity:0.1;}
	.st9{fill:#535461;}
	.st10{fill:#9D9CB5;}
	.st11{fill:none;stroke:#535461;stroke-width:2;stroke-miterlimit:10;}
	.st12{fill:url(#Path_462_1_);}
	.st13{fill:#1D2366;}
	.st14{fill:#FFB0B1;}
	.st15{fill:#C7DAF5;}
	.st16{opacity:3.000000e-02;enable-background:new    ;}
	.st17{fill:#DCE7FF;}
	.st18{fill:#591D4B;}
	.st19{fill:#BE8B87;}
	.st20{opacity:0.1;fill:#FFFFFF;enable-background:new    ;}
	.st21{fill:#EFC8C4;}
	.st22{fill:#727A9C;}
	.st23{fill:#E1F6E6;}
</style>
<g id="login-image" transform="translate(0.005 0.006)">
	<ellipse id="Ellipse_5" class="st0" cx="86.4" cy="179.5" rx="22.8" ry="3.7"/>
	<ellipse id="Ellipse_6" class="st0" cx="210.4" cy="179.6" rx="28.5" ry="3.7"/>
	<path id="Path_380" class="st0" d="M3.6,79.2h23.8v32.4h-22c-0.1,0.3-0.1,0.7-0.2,1h22.2v26.1c0,0-0.1,0-0.1,0
		c-0.6-0.2-1.3-0.5-1.9-0.8l-0.4-0.2c-0.6-0.3-1.2-0.6-1.9-0.9c-0.2-0.1-0.4-0.2-0.7-0.4c-3.5-1.9-6.6-4.4-9.3-7.3
		c-0.1-0.1-0.2-0.2-0.2-0.2c-0.4-0.4-0.8-0.8-1.1-1.3l-0.4-0.5c-0.4-0.5-0.8-1.1-1.2-1.6c-0.1-0.1-0.1-0.2-0.2-0.2
		c-1.6-2.3-3-4.7-4-7.3c0-0.1-0.1-0.2-0.1-0.2c-0.3-0.8-0.6-1.7-0.9-2.5c-0.1-0.4-0.2-0.7-0.3-1.1c0-0.1-0.1-0.2-0.1-0.3
		c-1.3-5.2-1.5-10.6-1.5-15.9v-1.9c0-2.2,0-4.3,0.1-6.5c0-0.6,0-1.1,0-1.7c0-1.4,0.1-2.9,0.1-4.3c0-0.4,0-0.8,0.1-1.2
		c0-0.2,0-0.5,0-0.7C3.5,80.8,3.6,80,3.6,79.2z"/>
	<path id="Path_381" class="st0" d="M27.4,43.1h-13c2.1-3.3,4.4-6.5,6.9-9.5c1.9-2.4,4-4.7,6.1-6.9L27.4,43.1z"/>
	<path id="Path_382" class="st0" d="M27.4,44.1v34.1H3.7c0-0.1,0-0.2,0-0.3c0-0.3,0-0.5,0.1-0.8c0-0.3,0.1-0.6,0.1-0.9
		s0.1-0.7,0.1-1s0.1-0.7,0.1-1s0.1-0.7,0.1-1s0.1-0.7,0.1-1c0-0.3,0.1-0.6,0.1-0.8c0.1-0.4,0.1-0.8,0.2-1.2c0-0.1,0-0.1,0-0.2
		c0.4-2.9,1-5.7,1.7-8.5c0.8-3,1.8-5.8,2.9-8.7c1.3-2.9,2.7-5.8,4.4-8.5L27.4,44.1z"/>
	<path id="Path_383" class="st0" d="M33,79.2v32.4h50.7V79.2H33z M33,112.6v27.8c0.3,0.1,0.6,0.1,0.9,0.2c0.4,0.1,0.8,0.1,1.2,0.2
		c0.1,0,0.2,0,0.2,0c0.2,0,0.3,0,0.5,0.1c0.4,0.1,0.8,0.1,1.2,0.1c0.2,0,0.4,0,0.6,0l0.5,0l0,0c0.2,0,0.5,0,0.7,0c0.1,0,0.3,0,0.5,0
		h1.7c0.2,0,0.4,0,0.6,0h0c0.1,0,0.3,0,0.4,0c0,0,0.1,0,0.1,0c0.1,0,0.2,0,0.3,0h0.1l0.8-0.1c0.3,0,0.5-0.1,0.8-0.1l0.5-0.1
		c2.2-0.3,4.3-0.8,6.4-1.4c4.7-1.3,9.4-3.2,14.1-4.5c6.1-1.7,12.9-2.6,18.8-0.5v-21.9L33,112.6z M83.8,43.1V0
		c-5.6-0.1-11.1,0.6-16.5,1.9C54.4,5.2,42.9,12.2,33,21.1v22h2.5v1H33v34.1h50.7V44.1H46v-1L83.8,43.1z M149,28.5
		c-3.2-0.2-6.4-1.1-9.2-2.7c-5.5-3-9.8-7.6-14.7-11.4c-10.3-8.1-22.6-13-35.6-14.1v42.8h72.4l0.2-0.2L149,28.5z M155.6,27.4l7,7.7
		v-9.7C160.2,25.7,157.8,26.4,155.6,27.4L155.6,27.4z M162.6,147.3v-34.7h-14.9c0-0.1-0.1-0.3-0.1-0.4c0,0.1,0.1,0.3,0.1,0.4H89.5
		v25.1c0.6,0.4,1.1,0.8,1.6,1.3l0,0c0.6,0.5,1.2,1,1.7,1.4l0.6,0.5c0.3,0.2,0.6,0.5,0.8,0.7c0.6,0.5,1.1,0.9,1.7,1.3
		c0.3,0.2,0.6,0.4,0.9,0.7c4.6,3.5,9.4,6.6,14.4,9.4c1.1,0.6,2.3,1.2,3.4,1.8c0.8,0.4,1.5,0.8,2.3,1.2c1.2,0.6,2.3,1.1,3.5,1.6l0,0
		c10.9,4.9,22.4,8.2,34.2,10c2.6,0.4,5.3,0.7,7.9,0.9L162.6,147.3l0.2,0L162.6,147.3z M89.5,44.1v34.1h73.1V44.1L89.5,44.1z
		 M89.5,79.2v32.4h73.1V79.2L89.5,79.2z M168.3,25.3v10.8l8.9-9.8C174.2,25.9,171.3,25.5,168.3,25.3L168.3,25.3z M168.3,79.2v32.4
		h71.1V79.2L168.3,79.2z M239.1,149.8l0.3-37.3h-71.1v56.3c4.6,0.2,9.2,0.1,13.7-0.2h0.1c2.2-0.1,4.4-0.3,6.5-0.6h0
		c11.5-1.3,22.8-4.4,33.5-8.9 M253.1,84.5c-0.3-0.6-0.5-1.3-0.8-1.9c-0.5-1.2-1.1-2.3-1.7-3.4H245v32.4h14
		C258.9,102.2,256.9,93,253.1,84.5L253.1,84.5z M245,112.6v32.1c4-3.7,7.3-8.2,9.7-13.1c2.8-5.9,4.3-12.4,4.3-19L245,112.6z
		 M245,69.7v8.4h5C248.5,75.3,246.9,72.5,245,69.7L245,69.7z M196.8,31.7c-0.4-0.1-0.7-0.3-1.1-0.4c-3.9-1.4-7.9-2.7-12-3.6
		l-13.7,15l0,0l-0.3,0.3l0.2,0.2h48.6C211.8,38.5,204.5,34.6,196.8,31.7L196.8,31.7z M220,44.1h-50.7l-1,0.9v33.1h71.1v-16
		C233.7,55.3,227.2,49.2,220,44.1L220,44.1z"/>
	<path id="Path_384" class="st0" d="M27.4,61.3v16.9H3.7c0-0.1,0-0.2,0-0.3c0-0.3,0-0.5,0.1-0.8c0-0.3,0.1-0.6,0.1-0.9
		s0.1-0.7,0.1-1s0.1-0.7,0.1-1s0.1-0.7,0.1-1s0.1-0.7,0.1-1c0-0.3,0.1-0.6,0.1-0.8c0.1-0.4,0.1-0.8,0.2-1.2c0-0.1,0-0.1,0-0.2
		c0.4-2.9,1-5.7,1.7-8.5L27.4,61.3z"/>
	<path id="Path_385" class="st0" d="M3.6,79.2h23.8v32.4h-22c-0.1,0.3-0.1,0.7-0.2,1h22.2v26.1c0,0-0.1,0-0.1,0
		c-0.6-0.2-1.3-0.5-1.9-0.8l-0.4-0.2c-0.6-0.3-1.2-0.6-1.9-0.9c-0.2-0.1-0.4-0.2-0.7-0.4c-3.5-1.9-6.6-4.4-9.3-7.3
		c-0.1-0.1-0.2-0.2-0.2-0.2c-0.4-0.4-0.8-0.8-1.1-1.3l-0.4-0.5c-0.4-0.5-0.8-1.1-1.2-1.6c-0.1-0.1-0.1-0.2-0.2-0.2
		c-1.6-2.3-3-4.7-4-7.3c0-0.1-0.1-0.2-0.1-0.2c-0.3-0.8-0.6-1.7-0.9-2.5c-0.1-0.4-0.2-0.7-0.3-1.1c0-0.1-0.1-0.2-0.1-0.3
		c-1.3-5.2-1.5-10.6-1.5-15.9v-1.9c0-2.2,0-4.3,0.1-6.5c0-0.6,0-1.1,0-1.7c0-1.4,0.1-2.9,0.1-4.3c0-0.4,0-0.8,0.1-1.2
		c0-0.2,0-0.5,0-0.7C3.5,80.8,3.6,80,3.6,79.2z"/>
	<path id="Path_386" class="st0" d="M50.9,49v29.2H33V49h2.5v-9.9H46V49H50.9z"/>
	<rect id="Rectangle_331" x="33" y="79.2" class="st0" width="17.9" height="32.4"/>
	<path id="Path_387" class="st0" d="M33,112.6h17.9v26.9c-2.1,0.6-4.3,1.1-6.4,1.4l-0.5,0.1c-0.3,0-0.5,0.1-0.8,0.1s-0.5,0-0.8,0.1
		h-0.1c-0.1,0-0.2,0-0.3,0h-0.1c-0.1,0-0.3,0-0.4,0l0,0c-0.2,0-0.4,0-0.6,0h-1.7l-0.5,0c-0.2,0-0.5,0-0.7,0l0,0l-0.4,0L37,141
		c-0.4,0-0.8-0.1-1.2-0.1l-0.5-0.1l-0.2,0c-0.4-0.1-0.8-0.1-1.2-0.2c-0.3,0-0.6-0.1-0.9-0.2L33,112.6z"/>
	<rect id="Rectangle_332" x="147.8" y="45.5" class="st0" width="14.7" height="32.6"/>
	<path id="Path_388" class="st0" d="M162.6,79.2v32.4H89.5v-14h38.9v8.2h19.4V79.2H162.6z"/>
	<path id="Path_389" class="st0" d="M162.8,147.3h-0.2v21.2c-2.6-0.2-5.3-0.5-7.9-0.9c-11.8-1.7-23.3-5.1-34.2-10
		c-3.1-1.4-6.2-3-9.2-4.6c-5-2.8-9.9-5.9-14.4-9.4c-1.1-0.9-2.3-1.8-3.4-2.7c-0.8-0.6-1.5-1.3-2.3-1.9c-0.5-0.4-1.1-0.9-1.6-1.3
		v-25.1h58.2c0-0.2-0.1-0.3-0.1-0.4c0,0.1,0.1,0.3,0.1,0.4h14.9v34.7C162.7,147.3,162.7,147.3,162.8,147.3z"/>
	<path id="Path_390" class="st0" d="M201,43.1h-9.6v-3h4.3v-8.9c0.4,0.1,0.7,0.3,1.1,0.4v8.5h4.2L201,43.1z"/>
	<path id="Path_391" class="st0" d="M224.1,78.2H177l0,0l0,0h-8.7V45.5h2.5v24.1H182V55.4h9.3V44.1h9.6v11.3h9.3v14.3h13.8
		L224.1,78.2z"/>
	<path id="Path_392" class="st0" d="M168.3,79.2v32.4h55.9V79.2H168.3z M239.3,149.7l0.1-25.6h-15.2v-11.5h-55.9v56.3
		c4.6,0.2,9.2,0.1,13.7-0.2h0.1c2.2-0.1,4.4-0.3,6.5-0.6h0c11.5-1.3,22.8-4.4,33.5-8.9"/>
	<path id="Path_393" class="st0" d="M246,112.6h13c0,6.6-1.5,13.1-4.3,19c-2.4,4.9-5.7,9.3-9.7,13.1V124h1V112.6z"/>
	<path id="Path_394" class="st0" d="M259.1,111.6h-13V84.5h7.1C256.9,93,258.9,102.2,259.1,111.6z"/>
	<rect id="Rectangle_333" x="154.7" y="54.6" class="st0" width="7.9" height="10.2"/>
	<rect id="Rectangle_334" x="154.7" y="75.8" class="st0" width="7.9" height="2.4"/>
	<rect id="Rectangle_335" x="154.7" y="79.2" class="st0" width="7.9" height="6.9"/>
	<rect id="Rectangle_336" x="154.7" y="97" class="st0" width="7.9" height="10.2"/>
	<rect id="Rectangle_337" x="154.7" y="118.2" class="st0" width="7.9" height="10.2"/>
	<path id="Path_395" class="st0" d="M162.6,147.3c0.1,0,0.2,0,0.2,0L162.6,147.3v2.4h-7.9v-10.2h7.9V147.3z"/>
	<path id="Path_396" class="st0" d="M162.6,160.6v7.9c-2.6-0.2-5.3-0.5-7.9-0.9v-7H162.6z"/>
	<rect id="Rectangle_338" x="89.5" y="110.8" class="st0" width="33.8" height="0.8"/>
	<rect id="Rectangle_339" x="89.5" y="112.6" class="st0" width="33.8" height="2.9"/>
	<rect id="Rectangle_340" x="89.5" y="124.9" class="st0" width="33.8" height="4.6"/>
	<path id="Path_397" class="st0" d="M123.3,138.9v4.6H96.8c-1.1-0.9-2.3-1.8-3.4-2.7c-0.8-0.6-1.5-1.3-2.3-1.9L123.3,138.9z"/>
	<path id="Path_398" class="st0" d="M123.3,153v4.6h-2.8c-3.1-1.4-6.2-3-9.2-4.6L123.3,153z"/>
	<rect id="Rectangle_341" x="182" y="82.3" class="st0" width="6.7" height="6.7"/>
	<rect id="Rectangle_342" x="37.8" y="51.3" class="st0" width="6.7" height="6.7"/>
	<rect id="Rectangle_343" x="37.8" y="66.8" class="st0" width="6.7" height="6.7"/>
	<rect id="Rectangle_344" x="37.8" y="82.2" class="st0" width="6.7" height="6.7"/>
	<rect id="Rectangle_345" x="37.8" y="97.7" class="st0" width="6.7" height="6.7"/>
	<rect id="Rectangle_346" x="37.8" y="113.1" class="st0" width="6.7" height="6.7"/>
	<rect id="Rectangle_347" x="37.8" y="128.6" class="st0" width="6.7" height="6.7"/>
	<rect id="Rectangle_348" x="207.4" y="82.3" class="st0" width="6.7" height="6.7"/>
	<rect id="Rectangle_349" x="182" y="98.7" class="st0" width="6.7" height="6.7"/>
	<rect id="Rectangle_350" x="207.4" y="98.7" class="st0" width="6.7" height="6.7"/>
	<rect id="Rectangle_351" x="182" y="115.2" class="st0" width="6.7" height="6.7"/>
	<rect id="Rectangle_352" x="207.4" y="115.2" class="st0" width="6.7" height="6.7"/>
	<rect id="Rectangle_353" x="182" y="131.6" class="st0" width="6.7" height="6.7"/>
	<rect id="Rectangle_354" x="207.4" y="131.6" class="st0" width="6.7" height="6.7"/>
	<rect id="Rectangle_355" x="182" y="148" class="st0" width="6.7" height="6.7"/>
	<rect id="Rectangle_356" x="207.4" y="148" class="st0" width="6.7" height="6.7"/>
	<path id="Path_399" class="st0" d="M182,168.7v-4.3h6.7v3.7L182,168.7z"/>
	<path id="Path_400" class="st0" d="M4.6,69.8v3.8h22.8v-3.8H4.6z M6.9,73.4H5v-3.3h1.9L6.9,73.4z M9.1,73.4H7.2v-3.3h1.9V73.4z
		 M11.4,73.4H9.5v-3.3h1.9L11.4,73.4z M13.7,73.4h-1.9v-3.3h1.9L13.7,73.4z M15.9,73.4H14v-3.3h1.9L15.9,73.4z M18.2,73.4h-1.9v-3.3
		h1.9L18.2,73.4z M20.5,73.4h-1.9v-3.3h1.9L20.5,73.4z M22.7,73.4h-1.9v-3.3h1.9L22.7,73.4z M25,73.4h-1.9v-3.3H25L25,73.4z
		 M27.3,73.4h-1.9v-3.3h1.9L27.3,73.4z"/>
	<path id="Path_401" class="st0" d="M4.6,80.9v3.8h22.8v-3.8H4.6z M6.9,84.5H5v-3.3h1.9L6.9,84.5z M9.1,84.5H7.2v-3.3h1.9V84.5z
		 M11.4,84.5H9.5v-3.3h1.9L11.4,84.5z M13.7,84.5h-1.9v-3.3h1.9L13.7,84.5z M15.9,84.5H14v-3.3h1.9L15.9,84.5z M18.2,84.5h-1.9v-3.3
		h1.9L18.2,84.5z M20.5,84.5h-1.9v-3.3h1.9L20.5,84.5z M22.7,84.5h-1.9v-3.3h1.9L22.7,84.5z M25,84.5h-1.9v-3.3H25L25,84.5z
		 M27.3,84.5h-1.9v-3.3h1.9L27.3,84.5z"/>
	<path id="Path_402" class="st0" d="M4.6,92v3.8h22.8V92H4.6z M6.9,95.6H5v-3.3h1.9L6.9,95.6z M9.1,95.6H7.2v-3.3h1.9V95.6z
		 M11.4,95.6H9.5v-3.3h1.9L11.4,95.6z M13.7,95.6h-1.9v-3.3h1.9L13.7,95.6z M15.9,95.6H14v-3.3h1.9L15.9,95.6z M18.2,95.6h-1.9v-3.3
		h1.9L18.2,95.6z M20.5,95.6h-1.9v-3.3h1.9L20.5,95.6z M22.7,95.6h-1.9v-3.3h1.9L22.7,95.6z M25,95.6h-1.9v-3.3H25L25,95.6z
		 M27.3,95.6h-1.9v-3.3h1.9L27.3,95.6z"/>
	<path id="Path_403" class="st0" d="M4.6,103.1v3.8h22.8v-3.8H4.6z M6.9,106.7H5v-3.3h1.9L6.9,106.7z M9.1,106.7H7.2v-3.3h1.9V106.7
		z M11.4,106.7H9.5v-3.3h1.9L11.4,106.7z M13.7,106.7h-1.9v-3.3h1.9L13.7,106.7z M15.9,106.7H14v-3.3h1.9L15.9,106.7z M18.2,106.7
		h-1.9v-3.3h1.9L18.2,106.7z M20.5,106.7h-1.9v-3.3h1.9L20.5,106.7z M22.7,106.7h-1.9v-3.3h1.9L22.7,106.7z M25,106.7h-1.9v-3.3H25
		L25,106.7z M27.3,106.7h-1.9v-3.3h1.9L27.3,106.7z"/>
	<path id="Path_404" class="st0" d="M4.7,114.2c0.1,0.4,0.2,0.7,0.3,1.1v-0.8h1.9v3.3h-1c0,0.1,0.1,0.2,0.1,0.2h21.4v-3.8L4.7,114.2
		z M9.1,117.8H7.3v-3.3h1.9V117.8z M11.4,117.8H9.5v-3.3h1.9L11.4,117.8z M13.7,117.8h-1.9v-3.3h1.9L13.7,117.8z M15.9,117.8h-1.9
		v-3.3h1.9V117.8z M18.2,117.8h-1.9v-3.3h1.9L18.2,117.8z M20.5,117.8h-1.9v-3.3h1.9L20.5,117.8z M22.7,117.8h-1.9v-3.3h1.9
		L22.7,117.8z M25,117.8h-1.9v-3.3H25L25,117.8z M27.3,117.8h-1.9v-3.3h1.9L27.3,117.8z"/>
	<path id="Path_405" class="st0" d="M10,125.3c0.1,0.1,0.1,0.2,0.2,0.2h1.2v1.6c0.1,0.2,0.3,0.3,0.4,0.5v-2.1h1.9v3.3h-0.8
		c0.1,0.1,0.1,0.2,0.2,0.2h14.2v-3.8H10z M15.9,128.8H14v-3.3h1.9V128.8z M18.2,128.8h-1.9v-3.3h1.9L18.2,128.8z M20.5,128.8h-1.9
		v-3.3h1.9L20.5,128.8z M22.7,128.8h-1.9v-3.3h1.9L22.7,128.8z M25,128.8h-1.9v-3.3H25V128.8z M27.3,128.8h-1.9v-3.3h1.9V128.8z"/>
	<path id="Path_406" class="st0" d="M22.5,136.4c0.2,0.1,0.4,0.2,0.7,0.4v-0.1H25v1.1l0.4,0.2v-1.2h1.9v2c0,0,0.1,0,0.1,0v-2.3H22.5
		z"/>
	<path id="Path_407" class="st0" d="M147.5,112.1c0,0.1,0.1,0.3,0.1,0.4l0,0C147.6,112.4,147.6,112.3,147.5,112.1L147.5,112.1z
		 M35.6,43.1v1h10.5v-1H35.6z M147.5,112.1c0,0.1,0.1,0.3,0.1,0.4l0,0C147.6,112.4,147.6,112.3,147.5,112.1L147.5,112.1z
		 M147.5,112.1c0,0.1,0.1,0.3,0.1,0.4l0,0C147.6,112.4,147.6,112.3,147.5,112.1L147.5,112.1z"/>
	
		<linearGradient id="Path_408_1_" gradientUnits="userSpaceOnUse" x1="-263.1829" y1="510.0017" x2="-263.1829" y2="511.0017" gradientTransform="matrix(50.5441 0 0 -144.0533 13386.1367 73648.8203)">
		<stop  offset="0" style="stop-color:#808080;stop-opacity:0.251"/>
		<stop  offset="0.54" style="stop-color:#808080;stop-opacity:0.122"/>
		<stop  offset="1" style="stop-color:#808080;stop-opacity:0.102"/>
	</linearGradient>
	<path id="Path_408" class="st1" d="M108.4,88.9c0,0-0.9-0.1-0.9-1.5c-0.1-1.3-0.3-2.6-0.7-3.9l0,0c0,0-0.6-4.4-1.4-5.1
		s-1.8-4.8-1.8-4.8c0-0.9-0.2-1.8-0.5-2.7c-0.6-1.1-1.1-2.2-1.5-3.3c-0.7-1.7-3.6-2.8-3.6-2.8s-5.3-3.1-6.8-4.1l0,0
		c-0.1-0.1-0.3-0.2-0.4-0.3c-0.3-0.3-1.4-0.4-1.4-0.4c-0.1-0.8-0.2-1.6-0.3-2.4c0-0.1,0-0.2,0-0.3c1.7-1,2.9-2.6,3.6-4.4
		c0-0.1,0.1-0.2,0.1-0.3c0.2-0.1,0.4-0.2,0.5-0.4c0.1-0.3,0.2-0.6,0.3-0.9c0.2-0.3,0.5-0.6,0.9-0.8c0.7-0.7,1-1.7,0.9-2.7
		c0-0.8-0.1-1.6-0.1-2.4l0-0.2c0-0.1,0-0.2,0.1-0.3c0.1-0.6,0.4-1.1,0.5-1.7c0.2-0.6,0.1-1.2-0.2-1.7c-0.6-0.7-1.5-1-2.4-0.9
		c-1-0.1-1.9,0-2.5-0.8c-0.3-0.4-0.6-0.8-1-1.2c-0.1-0.1-1.4-0.9-1.4-0.9c-1.2-0.6-2.7-0.7-4-0.3c-0.7,0.2-1.3,0.5-2,0.7
		c-1.4,0.3-3.1,0-4.3,0.8c-0.6,0.5-1.1,1.2-1.5,1.9c-0.3,0.6-0.6,1.2-1,1.8c-0.6,1-1,2-1.3,3.1c0,0.2-0.1,0.5-0.1,0.7l0,0v0.4
		c0,0.1,0,0.2,0,0.2c0,0.1,0,0.1,0,0.1s0,0.2,0,0.2s0,0.2,0.1,0.3c0,0,0,0.1,0,0.1c0,0.1,0.1,0.2,0.1,0.2c0,0,0,0.1,0.1,0.1
		c0,0.1,0.1,0.2,0.1,0.2c0,0,0,0.1,0.1,0.1c0.1,0.1,0.1,0.2,0.2,0.3c0.5,0.6,1.2,1,1.8,1.6v0.3c0.1,2.6,1.4,5.1,3.6,6.5
		c0,0.1,0,0.2,0,0.3c0,0.7,0,1.4,0,2.1c-0.2-0.2-0.5-0.4-0.8-0.3c-0.1,0-0.2,0-0.3,0l0,0l0,0v0c-0.5,0.1-1.1,0.7-1.8,2.2
		c0,0-1.8,2.1-3.2,2s-5,2.2-5,2.2s-3.5,2.3-4.2,4.5c-0.4,1.3-0.9,2.6-1.5,3.8L59.3,83l0,0l-0.8,7c0.2,1.2,0.3,2.4,0.4,3.6
		c-0.1,0.5,1.8,4.8,1.8,4.8s6.2,11,8.8,11.5l0.2-0.1c0.1,0.1,0.2,0.1,0.3,0.1l0.5-0.4c0,0.4,0,0.8,0,1.2c-0.4,1.1,0.1,8.1,0.7,9.5
		s0.4,19.5,0.4,19.5l-0.1,1.6c0,0,0,0.1,0,0.1l0,0.4l0.1,0c0.1,0.5,0,1-0.1,1.5c-0.2,0.9-0.3,1.8-0.3,2.7c0,0-1.8,11.2-0.9,13.5
		s1.5,4.7,1.5,4.7s0.9,2.8,0,3.3s-3.2,1.3-2.7,2.5c0.4,1.1,2.1,4,2.4,4.4l0,0.2l-0.3,3.7c0.1,0.5,0.2,1,0.4,1.4
		c0.4,1,1.4,1.7,2.5,1.6c0.2,0,0.5,0,0.8-0.1c1.9-0.3,3.8-0.8,5.7-1.5c-0.2-0.1-0.3-0.2-0.4-0.4l0,0c-0.3-0.2-0.4-0.6-0.4-0.9
		c-0.4-1.6-0.9-3.2-1.5-4.7c0-0.1-0.1-0.2-0.1-0.2s2.9-3,2.4-5.7c0,0-3.2-1.9-2.2-2.9c1.1-1.3,2.1-2.6,2.9-4c0,0,0.1-11,0-12.7
		c-0.1-1.1,0-2.3,0.2-3.4c0-0.2,0.1-0.3,0.1-0.5c1.5,0.2,2.9,0.3,4.4,0.3c0.5,0,1.1,0,1.6,0c0,0.2,0,0.3,0,0.5
		c0.1,2.7,0.3,7.5,0.5,9.3c0.3,2.6,1.7,9.4,1.7,9.4s-2.8,1.8,0.5,6.1c0,0.6-0.1,1.2-0.2,1.8l0,0c-0.2,0.8-0.4,1.5-0.6,2.3
		c-0.2,0.7-0.2,1.4,0,2.1c0.5,1,3.7,1,3.7,1l0,0l0.1,0c1.2-0.1,2.4,0.2,3.3,1c1.2,1,5.8,0.5,8.2,0.2c1-0.1,1.6-0.2,1.6-0.2
		c0-0.1,0-0.2,0-0.3l0,0c0-0.6-0.5-1.9-3.7-3.1c0,0-3-2-3-3.8h-0.4c0.1,0,0.3,0,0.4,0c0,0-1.2-4.3-0.7-4.7s-1-5.1-1-5.1
		s-0.8-8.1-0.9-8.6c0-0.5,0.1-1,0.2-1.4l-0.2-4.4c0,0,0-1.5,0-1.9c0-0.4,0-0.8-0.1-1.2c0-0.2,0-0.3-0.1-0.5c1.1-0.3,1.9-0.6,1.9-0.6
		l-0.1-15.4c1-1.9,1.1-6,1.1-8.9c0-1.9-0.1-3.3-0.1-3.3l1.3-2.2c0,0,0.3-2.6-0.2-3.1c-0.2-0.2-0.2-0.5,0.1-0.7
		c0.1-0.1,0.2-0.1,0.3-0.2c0,0,0,0,0-0.1c0.1-0.1,0.2-0.1,0.3-0.2c0,0-0.5-0.7,0-1c0.4,0.3,0.7,0.5,1,0.6c0,0.2,0,0.3,0,0.3l0.1-0.2
		l0.4,0.2c0,0,2.1-4.1,2-4.7s1.4-3.2,1.4-3.2c0.1-0.7,0.4-1.4,1-1.9c0.8-0.6,0.6-4.6,0.6-4.6c0.1-1,0.3-2,0.7-3
		C109.4,90,108.4,88.9,108.4,88.9z M68.9,87.1l0,1l-0.4-0.6L68.9,87.1z"/>
	<path id="Path_409" class="st2" d="M103.3,106.5l-0.5,2.2c0,0-4-2.1-4.8-4.7c-0.5-1.3,0-2.9,1.2-3.6l3.8,1.6L103.3,106.5z"/>
	<path id="Path_410" class="st3" d="M103.3,106.5l-0.5,2.2c0,0-4-2.1-4.8-4.7c-0.5-1.3,0-2.9,1.2-3.6l3.8,1.6L103.3,106.5z"/>
	<path id="Path_411" class="st2" d="M80.5,179.8c-2,0.8-4.2,1.3-6.3,1.5c-1.1,0.1-2.1-0.5-2.5-1.6c-0.2-0.4-0.3-0.9-0.4-1.4l0.3-3.7
		l0.2-2l5.5-1.4l0.8,2.4l0.1,0.2c0.6,1.5,1.2,3.1,1.5,4.7c0,0.3,0.1,0.7,0.4,0.9C80.2,179.6,80.4,179.7,80.5,179.8z"/>
	<path id="Path_412" class="st2" d="M106.1,178c0,0.1,0,0.2,0,0.3c0,0-8,1.3-9.6,0c-0.9-0.8-2.2-1.1-3.4-1c0,0-3.1,0.1-3.6-0.9
		c-0.2-0.7-0.2-1.4,0-2.1c0.1-0.8,0.3-1.5,0.5-2.3l0.1-0.1l0.7-0.6l8.6-0.3h0.1c0,1.8,2.9,3.8,2.9,3.8
		C105.6,176,106.1,177.4,106.1,178z"/>
	<path id="Path_413" class="st3" d="M106.1,178c0,0.1,0,0.2,0,0.3c0,0-8,1.3-9.6,0c-0.9-0.8-2.2-1.1-3.4-1c0,0-3.1,0.1-3.6-0.9
		c-0.2-0.7-0.2-1.4,0-2.1c1.2,0.1,3.1,0.4,3.8,1.1c1.2,1.1,2.6,1.9,4.2,2.2C98.3,177.7,103.8,177.9,106.1,178z"/>
	<path id="Path_414" class="st3" d="M80.5,179.8c-2,0.8-4.2,1.3-6.3,1.5c-1.1,0.1-2.1-0.5-2.5-1.6c0.9,0.4,2,0.5,3,0.3
		c1.8-0.4,3.6-0.7,5.4-0.7C80.2,179.6,80.4,179.7,80.5,179.8z"/>
	<path id="Path_415" class="st4" d="M86.1,68.9c-3.1-1.2-7.1-5.2-6.1-7c0.2-0.5,0.4-1,0.4-1.5c0.1-0.7,0.1-1.4,0-2.1
		c-0.1-1.1-0.2-2.3-0.4-3.4c0,0,9.6,0.2,9.1,1.6c-0.2,0.6-0.2,1.3-0.1,2c0,0.8,0.2,1.7,0.3,2.5c0.2,1.1,0.3,1.9,0.3,1.9
		s-0.6,0.8-0.9,0.9S90.5,70.6,86.1,68.9z"/>
	<path id="Path_416" class="st3" d="M78.2,173.9L78.2,173.9c-3-3.4-6.4,0.9-6.4,0.9l-0.1-0.1l0.2-2l5.5-1.4l0.8,2.4L78.2,173.9z"/>
	<path id="Path_417" class="st3" d="M99.5,171.3c-1.1,0-2.3,0.3-3.2,0.9c-1.1,1-6.6,0.2-6.3,0c0.1-0.1,0.1-0.2,0.1-0.4l0.7-0.6
		l8.6-0.3C99.5,171.2,99.5,171.3,99.5,171.3z"/>
	<path id="Path_418" class="st5" d="M81.8,143.9c-0.2,0.4-0.3,0.8-0.4,1.2c-0.2,1.1-0.2,2.3-0.2,3.4c0.1,1.6,0,12.6,0,12.6
		c-0.9,1.4-1.8,2.7-2.9,4c-1,1,2.1,2.9,2.1,2.9c0.5,2.7-2.4,5.7-2.4,5.7c-2.9-3.5-6.4,0.9-6.4,0.9s-1.9-3.3-2.4-4.4s1.9-2,2.7-2.5
		s0-3.3,0-3.3s-0.7-2.5-1.5-4.7s0.9-13.4,0.9-13.4c0-0.9,0.1-1.8,0.3-2.7c0.1-0.5,0.1-1,0.1-1.5c0-0.2,0-0.3,0-0.4s0-0.1,0-0.1
		l0-0.1l1.2-2.2C72.9,139.3,82.4,142.5,81.8,143.9z"/>
	<path id="Path_419" class="st5" d="M99.5,171.1c-1.1,0-2.3,0.3-3.2,0.9c-1.1,1-6.6,0.2-6.3,0s0.2-1.8,0.2-1.8
		c-3.2-4.3-0.5-6.1-0.5-6.1s-1.4-6.8-1.7-9.4c-0.2-1.8-0.4-6.5-0.5-9.3c-0.1-1.2-0.1-2-0.1-2l2.6-0.5l0.3-0.1l6.3-1.3
		c0,0,0.2,1.2,0.3,2.1c0.1,0.4,0.1,0.8,0.1,1.2c0,0.5,0,1.9,0,1.9l0.2,4.4c-0.1,0.5-0.2,0.9-0.2,1.4c0,0.6,0.9,8.6,0.9,8.6
		s1.4,4.8,0.9,5.1S99.5,171.1,99.5,171.1z"/>
	<path id="Path_420" class="st3" d="M89.1,56.5c-0.2,0.6-0.2,1.3-0.1,2c-2.6,1.6-6,1.5-8.5-0.2c-0.1-1.2-0.2-2.3-0.4-3.4
		C80,54.9,89.7,55.1,89.1,56.5z"/>
	<path id="Path_421" class="st4" d="M92.8,51.3c0,0.8-0.1,1.7-0.4,2.5c-1.4,4.2-5.9,6.5-10.1,5.1c-3.2-1.1-5.4-4-5.5-7.4v-0.2
		c0-4.4,3.5-8.1,7.9-8.1s8.1,3.5,8.1,7.9C92.8,51.2,92.8,51.3,92.8,51.3L92.8,51.3z"/>
	<path id="Path_422" class="st3" d="M86.1,68.9c-3.1-1.2-7.1-5.2-6.1-7c0.2-0.5,0.4-1,0.4-1.5l4.2,3.5l2.6,2.1l2-5.1
		c0.2,1.1,0.3,1.9,0.3,1.9s-0.6,0.8-0.9,0.9S90.5,70.6,86.1,68.9z"/>
	<path id="Path_423" class="st5" d="M97,84.3l-3.5,59.3l-4.6,0.3L77,109.5l2-40.9l0.4-8.6l5.3,4.4l2.6,2.1l2-5.2l3.8,3.3L97,84.3z"
		/>
	<path id="Path_424" class="st3" d="M81.8,143.9c-0.2,0.4-0.3,0.8-0.4,1.2c-3.4-0.5-6.6-1.5-9.7-3l-0.1,0l0-0.4l0-0.2l1.2-2.2
		C72.9,139.3,82.4,142.5,81.8,143.9z"/>
	<path id="Path_425" class="st3" d="M90.1,145.1c-0.9,0.1-1.7,0.2-2.6,0.3c-0.1-1.2-0.1-2-0.1-2l2.6-0.5L90.1,145.1z"/>
	<path id="Path_426" class="st3" d="M96.9,143.7c-2.1,0.6-4.3,0.8-6.5,0.6l0-1.5l6.3-1.3C96.7,141.6,96.8,142.8,96.9,143.7z"/>
	<path id="Path_427" class="st3" d="M90.4,144.6c-9.6,1.6-18.4-3.1-18.4-3.1l0.1-1.6c0,0,0.2-18-0.4-19.4s-1.1-8.4-0.7-9.5
		s-1.2-17.2-1.2-17.2l-0.3-6.6L60,83.5l4.2-8.8c0.6-1.2,1.1-2.5,1.5-3.8c0.7-2.3,4.1-4.5,4.1-4.5s3.5-2.2,4.9-2.2s3.2-2,3.2-2
		c1.3-3.4,2.5-1.9,2.5-1.9c0,0.2,0,0.3-0.1,0.5c-0.5,3.7,7.6,15.5,7.7,15.7l0,0l0.8,18.6l0.8,23.6L90.4,144.6z"/>
	<path id="Path_428" class="st2" d="M90.1,144.6c-9.6,1.6-18.4-3.1-18.4-3.1l0.1-1.6c0,0,0.2-18-0.4-19.4s-1.1-8.4-0.7-9.5
		s-1.2-17.2-1.2-17.2l-0.3-6.6l-9.4-3.8l4.2-8.8c0.6-1.2,1.1-2.5,1.5-3.8c0.7-2.3,4.1-4.5,4.1-4.5s3.5-2.2,4.9-2.2s3.2-2,3.2-2
		c1.3-3.4,2.8-1.9,2.8-1.9c0,0.2-0.1,0.2-0.1,0.5c1,3.6,7.3,15.5,7.4,15.7l0,0l0.8,18.6l0.8,23.6L90.1,144.6z"/>
	<path id="Path_429" class="st3" d="M87.5,77.1c-1-0.4-6.5-6.7-6.5-6.7V69c-0.2-0.5-1.4-0.2-2.3,0.1l0.4-8.6l0.5,0.4
		C80.6,64.6,87.4,76.9,87.5,77.1z"/>
	<path id="Path_430" class="st2" d="M87.8,76.6c-1-0.4-6.5-6.7-6.5-6.7v-1.4c-0.2-0.5-1.4-0.2-2.3,0.1l0.4-8.6l0.5,0.4
		C80.8,64,87.7,76.4,87.8,76.6z"/>
	<path id="Path_431" class="st3" d="M72,107.7c0.1,0,6.7-0.7,6.7-0.7s4,7.8,3.7,9.7s-0.7,3.6-2.3,3.3s-8.6,0.2-8.6,0.2L72,107.7z"/>
	<path id="Path_432" class="st2" d="M71.7,107.2c0.1,0,6.7-0.7,6.7-0.7s4,7.8,3.7,9.7s-0.7,3.6-2.3,3.3s-8.6,0.2-8.6,0.2L71.7,107.2
		z"/>
	<path id="Path_433" class="st4" d="M76.6,103.6c0,0,6,3.2,6.1,4.2s-3.1-0.4-3.7-0.6c-0.5-0.1-0.9-0.2-1.4-0.2l-4.6,0.1L76.6,103.6z
		"/>
	<circle id="Ellipse_7" class="st3" cx="85.8" cy="76.9" r="0.6"/>
	<circle id="Ellipse_8" class="st6" cx="85.8" cy="76.6" r="0.6"/>
	<circle id="Ellipse_9" class="st3" cx="87" cy="104.3" r="0.6"/>
	<circle id="Ellipse_10" class="st6" cx="87" cy="104" r="0.6"/>
	<circle id="Ellipse_11" class="st3" cx="86.5" cy="90.6" r="0.6"/>
	<circle id="Ellipse_12" class="st6" cx="86.5" cy="90.3" r="0.6"/>
	<path id="Path_434" class="st2" d="M101,106.8c0,0,0.4,0.6,0,0.9s0,1,0,1s-1.1,0.6-0.6,1.2s0.2,3.1,0.2,3.1l-1.3,2.1
		c0,0,0.1,1.4,0.1,3.2c0,2.9-0.2,7-1.1,8.9l0.1,15.3c0,0-4.5,1.7-8.3,1.1l-0.6-24.5c0,0,0.8-13.9,1.1-16.6c0.2-1.4,0.2-2.8,0.2-4.2
		c-0.1-2-0.2-4.1-0.6-6.1c0,0-0.5-8.4-0.5-10.7c0-1.1,0-4.4,0.1-7.4c0.1-3.4,0.2-6.6,0.2-6.6l-0.9-6.8c0,0,0.9-0.1,1.1,0.3
		c0.1,0.1,0.2,0.2,0.4,0.3l0,0c1.5,1,6.7,4.1,6.7,4.1s2.9,1.1,3.6,2.8c0.4,1.1,0.9,2.2,1.5,3.3c0.3,0.9,0.5,1.8,0.5,2.7
		c0,0,1,4,1.8,4.7s1.3,5,1.3,5l-6.8,5.4c0,0-0.6,9-0.7,9.3S101,106.8,101,106.8z"/>
	<path id="Path_435" class="st2" d="M101.3,106.8c0,0,0.4,0.6,0,0.9s0,1,0,1s-1.1,0.6-0.6,1.2s0.2,3.1,0.2,3.1l-1.3,2.1
		c0,0,0.1,1.4,0.1,3.2c0,2.9-0.2,7-1.1,8.9l0.1,15.3c0,0-4.5,1.7-8.3,1.1l-0.6-24.5c0,0,0.8-13.9,1.1-16.6c0.2-1.4,0.2-2.8,0.2-4.2
		c-0.1-2-0.2-4.1-0.6-6.1c0,0-0.5-8.4-0.5-10.7c0-1.1,0-4.4,0.1-7.4c0.1-3.4,0.2-6.6,0.2-6.6l-1.1-6.9c0,0,1.1,0,1.4,0.3
		c0.1,0.1,0.2,0.2,0.4,0.3l0,0c1.5,1,6.7,4.1,6.7,4.1s2.9,1.1,3.6,2.8c0.4,1.1,0.9,2.2,1.5,3.3c0.3,0.9,0.5,1.8,0.5,2.7
		c0,0,1,4,1.8,4.7s1.3,5,1.3,5l-6.8,5.4c0,0-0.6,9-0.7,9.3S101.3,106.8,101.3,106.8z"/>
	<path id="Path_436" class="st3" d="M93.1,69.7l0.6,1.8l-3.3,3.3c0.1-3.4,0.2-6.6,0.2-6.6l-1.1-6.9c0,0,1.1,0,1.4,0.3
		c0.1,0.1,0.2,0.2,0.4,0.3l0,0l2.8,8L93.1,69.7z"/>
	<path id="Path_437" class="st2" d="M92.8,69.2l0.6,1.8l-3.3,3.3c0.1-3.4,0.2-6.6,0.2-6.6l-1.1-6.9c0,0,1.1,0,1.4,0.3
		c0.1,0.1,0.2,0.2,0.4,0.3l0,0l2.8,8L92.8,69.2z"/>
	<path id="Path_438" class="st3" d="M92.8,51.3c0,0.8-0.1,1.7-0.4,2.5c-0.1,0-0.2,0-0.3-0.1c-0.2-2.1-1-4.1-2.4-5.8
		c-0.4-0.5-0.8-1-1.3-1.3c-0.5-0.4-1.1-0.6-1.7-0.5c-0.7,0.1-1.3,0.6-2,0.6c-0.9,0.1-1.8-0.6-2.7-0.6c-0.8,0-1.5,0.3-2,0.9
		c-0.5,0.6-0.9,1.2-1.1,2c-0.4,1.1-0.6,2.2-0.6,3.4c0,0.7-0.1,1.5-0.7,1.7c0.1-1-0.2-1.9-0.9-2.7l0,0v-0.2c0-4.4,3.5-8.1,7.9-8.1
		s8.1,3.5,8.1,7.9C92.8,51.2,92.8,51.3,92.8,51.3L92.8,51.3z"/>
	<path id="Path_439" class="st7" d="M88.2,38.6c-1.2-0.6-2.6-0.7-3.9-0.3c-0.6,0.2-1.3,0.5-1.9,0.7c-1.4,0.3-3,0-4.2,0.8
		c-0.6,0.5-1.1,1.2-1.4,1.9l-0.9,1.8c-0.6,1-1,2-1.2,3c-0.3,1.1,0,2.2,0.6,3.1c0.5,0.6,1.2,1,1.8,1.6c0.7,0.7,1,1.7,0.9,2.7
		c0.6-0.2,0.7-1.1,0.7-1.7c0-1.2,0.2-2.3,0.6-3.4c0.2-0.7,0.6-1.4,1.1-2c0.5-0.6,1.2-0.9,2-0.9c0.9,0,1.8,0.7,2.7,0.6
		c0.7-0.1,1.3-0.5,2-0.6c0.6-0.1,1.2,0.1,1.7,0.5c0.5,0.4,0.9,0.8,1.3,1.3c1.4,1.6,2.2,3.6,2.4,5.8c0.3,0.2,0.6-0.1,0.8-0.4
		c0.1-0.3,0.2-0.6,0.3-0.9c0.2-0.3,0.5-0.6,0.8-0.8c0.7-0.7,1-1.7,0.9-2.7c-0.1-1-0.1-1.9,0-2.9c0.1-0.6,0.4-1.1,0.5-1.7
		c0.2-0.6,0.1-1.2-0.2-1.7c-0.6-0.6-1.4-1-2.3-0.9c-1-0.1-1.8,0-2.5-0.8c-0.3-0.4-0.6-0.8-1-1.2C89.4,39.4,88.2,38.7,88.2,38.6z"/>
	<path id="Path_440" class="st3" d="M62.7,88l-2.4-4.5l-0.8,7c0.2,1.2,0.3,2.4,0.3,3.6c-0.1,0.5,1.8,4.7,1.8,4.7s6.1,10.9,8.6,11.5
		l8.4-6l-2.2-2.8c0,0-0.8-0.3-1,0c0,0-4.2-7.1-4.6-7.7c-0.3-0.5-0.4-1-0.3-1.5c0,0-0.6-0.7-0.4-1.3s-1.2-2.9-1.2-2.9l1.3-1.2
		L62.7,88z"/>
	<path id="Path_441" class="st2" d="M60.4,82.9l-0.6,0.5l-0.8,7c0.2,1.2,0.3,2.4,0.3,3.6c-0.1,0.5,1.8,4.7,1.8,4.7
		s6.1,10.9,8.6,11.5l8.4-6l-2.2-2.8c0,0-0.8-0.3-1,0c0,0-4.2-7.1-4.6-7.7c-0.3-0.5-0.4-1-0.3-1.5c0,0-0.6-0.7-0.4-1.3
		s-1.3-2.9-1.3-2.9l1.3-1.2L60.4,82.9z"/>
	<path id="Path_442" class="st3" d="M100.5,110.3c0.5,0.6,0.2,3.1,0.2,3.1l-1.3,2.1c0,0,0.1,1.4,0.1,3.2l-2.2,0.7
		c-0.7,0.2-1.4-0.2-1.6-0.8c0-0.1-0.1-0.3-0.1-0.4l0.4-12.1l5.1,1.9c-0.4,0.3,0,1,0,1S100,109.7,100.5,110.3z"/>
	<path id="Path_443" class="st2" d="M100.7,110c0.5,0.6,0.2,3.1,0.2,3.1l-1.3,2.1c0,0,0.1,1.4,0.1,3.2l-2.2,0.7
		c-0.7,0.2-1.4-0.2-1.6-0.8c0-0.1-0.1-0.3-0.1-0.4l0.4-12.1l5.1,1.9c-0.4,0.3,0,1,0,1S100.3,109.5,100.7,110z"/>
	<path id="Path_444" class="st4" d="M102.4,104.3c0,0-0.3,2.2-1.2,2.3s-1.2,3.6-2.1,3.4s-0.3-3.2-0.3-3.8s-0.9-3.1-0.2-3.6s3,0,3,0
		L102.4,104.3z"/>
	<path id="Path_445" class="st3" d="M104.3,87.3l1.6-3.3c0.3,1.3,0.5,2.5,0.6,3.8c0,1.3,0.9,1.5,0.9,1.5s1,1.2,0.5,2
		c-0.4,0.9-0.6,1.9-0.7,3c0,0,0.2,4-0.6,4.6c-0.5,0.5-0.9,1.2-0.9,1.9c-0.6,1-1.1,2-1.4,3.1c0,0.6-2,4.7-2,4.7s1-5.1-4.8-7.3
		c0,0,0-1.7,0.4-2.2s1.1-0.7,0.7-3.1c-0.2-1.9-0.3-3.9-0.1-5.8c0.3-1.4,0.8-2.8,1.3-4.2L104.3,87.3z"/>
	<path id="Path_446" class="st2" d="M105,83.6l1.4,0.5c0.3,1.3,0.5,2.5,0.6,3.8c0,1.3,0.9,1.5,0.9,1.5s1,1.2,0.5,2
		c-0.4,0.9-0.6,1.9-0.7,3c0,0,0.2,4-0.6,4.6c-0.5,0.5-0.9,1.2-0.9,1.9c-0.6,1-1.1,2-1.4,3.1c0,0.6-2,4.7-2,4.7s1-5.1-4.8-7.3
		c0,0,0-1.7,0.4-2.2s1.1-0.7,0.7-3.1c-0.2-1.9-0.3-3.9-0.1-5.8c0.3-1.4,0.8-2.8,1.3-4.2L105,83.6z"/>
	<path id="Path_447" class="st3" d="M73.6,168.5c0,0,2.3-1.4,3.7-0.4S73.6,168.5,73.6,168.5z"/>
	<path id="Path_448" class="st3" d="M91.2,164.1c1.4-0.1,2.8,0.5,3.7,1.6C96.6,167.5,91.2,164.1,91.2,164.1z"/>
	<g id="Group_60" transform="translate(74.38 43.228)" class="st8">
		<path id="Path_449" d="M19.7,7.7c-0.3,0.2-0.6,0.5-0.9,0.8c-0.1,0.3-0.2,0.6-0.3,0.9c-0.1,0.3-0.5,0.6-0.8,0.4
			c-0.2-2.1-1-4.1-2.4-5.8c-0.4-0.5-0.8-1-1.3-1.3c-0.5-0.4-1.1-0.6-1.7-0.5c-0.7,0.1-1.3,0.6-2,0.6C9.4,2.9,8.6,2.2,7.7,2.2
			c-0.8,0-1.5,0.3-2,0.9c-0.5,0.6-0.9,1.2-1.1,2C4.3,6.2,4.1,7.3,4,8.5C4,9.1,4,10,3.3,10.2c0,0.2,0,0.3,0,0.5C4,10.5,4,9.7,4,9
			c0-1.2,0.2-2.3,0.6-3.4c0.2-0.7,0.6-1.4,1.1-2c0.5-0.6,1.2-0.9,2-0.9c0.9,0,1.8,0.7,2.7,0.6c0.7-0.1,1.3-0.5,2-0.6
			c0.6-0.1,1.2,0.1,1.7,0.5c0.5,0.4,0.9,0.8,1.3,1.3c1.4,1.6,2.2,3.6,2.4,5.8c0.3,0.2,0.6-0.1,0.8-0.4c0.1-0.3,0.2-0.6,0.3-0.9
			c0.2-0.3,0.5-0.6,0.9-0.8c0.7-0.7,1-1.7,0.9-2.7V5.5C20.6,6.3,20.3,7.1,19.7,7.7z"/>
		<path id="Path_450" d="M2.5,7.5c-0.5-0.6-1.3-1-1.8-1.6C0.3,5.4,0,4.7,0,4c-0.1,0.9,0.2,1.7,0.7,2.4c0.5,0.6,1.2,1,1.8,1.6
			C3,8.6,3.3,9.4,3.3,10.1C3.4,9.2,3.1,8.2,2.5,7.5L2.5,7.5z"/>
		<path id="Path_451" d="M21.1,0.5C21,1,20.7,1.6,20.6,2.2c-0.1,0.4-0.1,0.8-0.1,1.2c0-0.2,0-0.4,0.1-0.7c0.1-0.6,0.4-1.1,0.5-1.7
			c0.1-0.3,0.1-0.6,0.1-1C21.2,0.2,21.1,0.3,21.1,0.5z"/>
	</g>
	<ellipse id="Ellipse_13" class="st0" cx="31.4" cy="174.4" rx="22.8" ry="3.7"/>
	<rect id="Rectangle_357" x="30.7" y="104.2" class="st9" width="1.5" height="33"/>
	<path id="Path_452" class="st6" d="M41.4,137.2l-0.1,1.5l-0.1,2.1l-0.1,0.9l-0.1,2.1l-0.1,0.9l-0.1,2.1l-1.5,23.9
		c-0.1,2.1-1.9,3.8-4,3.8h-7.7c-2.1,0-3.9-1.7-4-3.8l-1.5-23.9l-0.1-2.1l-0.1-0.9l-0.1-2.1l-0.1-0.9l-0.1-2.1l-0.1-1.5
		c-0.1-1.2,0.8-2.2,2-2.2c0,0,0.1,0,0.1,0h15.7c1.2,0,2.1,1,2.1,2.1C41.4,137.1,41.4,137.1,41.4,137.2L41.4,137.2z"/>
	<path id="Path_453" class="st10" d="M41.3,138.6l-0.1,2.1H21.7l-0.1-2.1H41.3z"/>
	<path id="Path_454" class="st10" d="M41.1,141.6l-0.1,2.1H21.9l-0.1-2.1H41.1z"/>
	<path id="Path_455" class="st10" d="M40.9,144.6l-0.1,2.1H22.1l-0.1-2.1H40.9z"/>
	<path id="Path_456" class="st5" d="M19.3,116.6c8.5,6.2,12.1,15.9,12.1,15.9s-10.3-0.4-18.9-6.5S0.5,110.1,0.5,110.1
		S10.8,110.4,19.3,116.6z"/>
	<path id="Path_457" class="st11" d="M0.5,110.1c0,0,10.7,5.9,14.1,10.8s16.8,11.5,16.8,11.5"/>
	<path id="Path_458" class="st5" d="M24.9,104.1c2.9,2.2,5.2,5.2,6.6,8.6c-7.6-0.3-14.2-5.1-16.9-12.2
		C18.3,100.8,21.8,102.1,24.9,104.1z"/>
	<path id="Path_459" class="st11" d="M14.6,100.6c0,0,5.8,3.2,7.7,5.9s9.2,6.3,9.2,6.3"/>
	<path id="Path_460" class="st5" d="M38.2,112.5c-3.3,3.9-5.6,8.5-6.5,13.5c10.1-2.6,17.8-10.9,19.4-21.3
		C46.2,106.2,41.7,108.8,38.2,112.5z"/>
	<path id="Path_461" class="st11" d="M51.1,104.8c0,0-7,6-8.7,10.2S31.7,126,31.7,126"/>
	
		<linearGradient id="Path_462_1_" gradientUnits="userSpaceOnUse" x1="-263.6461" y1="509.8128" x2="-263.6461" y2="510.8128" gradientTransform="matrix(55.3618 0 0 -131.5776 14805.4619 67259.5313)">
		<stop  offset="0" style="stop-color:#808080;stop-opacity:0.251"/>
		<stop  offset="0.54" style="stop-color:#808080;stop-opacity:0.122"/>
		<stop  offset="1" style="stop-color:#808080;stop-opacity:0.102"/>
	</linearGradient>
	<path id="Path_462" class="st12" d="M234.4,110.4c0,0-3.9-19.2-2.4-21.6c0,0,0.1-2.2,0-5.1v-0.3c0.3,0.2,0.5,0.3,0.8,0.5
		c1.4,0.7,2.9,0.9,4.4,0.6l-1.2-1.3c-0.3-0.3-0.5-0.7-0.6-1.1c0-0.4,0.1-0.8,0.3-1.1c1.1-2.8,1.2-6.3-1-8.5
		c-1.8-1.8-2.3-4.1-4.2-5.8c-1.3-1.3-2.4-2.9-3-4.7c-0.7-1.4-1.2-2.9-1.6-4.4c-0.3-1.2-0.4-2.4-0.8-3.6c-0.3-1.2-1.1-2.2-2.2-2.8
		c-0.4-0.1-0.8-0.3-1.2-0.5c-0.4-0.4-0.8-0.8-1.1-1.3c-1.8-2.3-7.7-1-10.5,0c-0.8,0.2-1.5,0.6-2.1,1.2l0,0c0,0,0-0.1,0.1-0.1
		c-0.3,0.2-0.6,0.5-0.8,0.9c-0.3,0.7-0.7,1.4-0.9,2.1c-0.4,0.8-2.7,3.2-1.7,4.1c0.1,0.1,0.1,0.1,0.2,0.1c0.4,0.2,0.8,0.2,1.2,0.1
		l0,0.1c-0.3,0.8-0.5,1.7-0.5,2.6c0,3.9,3.2,7,7.1,7c0,0,0,0,0,0c0.7,0,1.5-0.1,2.2-0.3c0,0.1,0,0.2,0,0.3c0,0,0,0.1,0,0.1l0,0
		l-0.1,0.2c0,0,0,0,0,0l-3.7,5.1c-0.6,0.4-3.8,2.7-4,4.5c-0.2,1.9-0.4,4.2-0.4,4.2l0,0.5c-0.3,0.3-0.8,0.4-1.2,0.3
		c-1.1-0.2-1.1,4.2-1.1,4.2s-0.8,0.7-1.3,0.1s-1.9,1.5-1.9,1.5l-8.7,0.4l0,0l-0.2,0l-0.5-1.4c-0.1-0.3-0.4-0.5-0.8-0.4
		c0,0-0.1,0-0.1,0l0,0l-0.1,0l0,0c0,0,0,0,0,0l0,0l0,0l0,0c-0.1,0.2-0.1,0.3-0.1,0.5l0.4,1.2c-1.7,0.3-3.4,1.3-2,3.9l-7.1-1.3
		l2.3,1.9l11.8,2.4c-0.2,0.3-0.1,0.7,0.4,1.3c2.1,2.5,5.9,3.1,7.5,3.3c0.4,0.9,0.9,1.8,1.5,2.6l-0.1,2.5c0,0-3.9,18.8-4.6,19.7
		c0.4-0.4,0.7-0.8,1-1.3c-1.1,3.9-2.7,9.1-3.1,9.9c-0.7,1.3-1.3,6.4-0.5,6.7c0.6,0.1,1.2,0.1,1.9,0v0.4l0,16.1c0,0,0.2,9.8-0.3,10.8
		c-0.4,0.9-0.6,1.9-0.7,2.9c-1,2-2.3,3.8-3.8,5.4c0,0,0,0,0,0l-0.1-0.4c0,0-2,2.5-6.4,2.4c0,0-2.7,1.7,1.3,1.8s9-0.1,9-0.1
		s3.5-5.4,6.5-4.7v4.1h0.9v-4.1c0.8-0.6,1.4-1.4,1.6-2.4c0.2-1-0.2-2.1-1.1-2.7c-0.4-0.3-0.6-0.8-0.6-1.3l0,0c0-0.1,0-0.2,0-0.3
		c-0.3-2.1-0.6-6.5,0.6-9.7c1.6-4.4,2.1-10.6,0.9-14.2c-0.4-1.2-0.7-2.4-0.9-3.6c0-0.2-0.1-0.3-0.1-0.4c0.8,0.1,1.6,0.3,2.3,0.5
		c2.7,0.7,8.5,0.9,13.4,0.8c0,0.1,0,0.3,0,0.4c0.1,1,0.3,2,0.6,2.9c0.6,1.9,0.9,10.1,0.9,10.1s0.8,6.8,0.4,9.6
		c-0.2,1.5-0.5,3.1-0.6,4.6v0c0,0-1.3,3.7-2.3,5.8c0,0.1,0,0.1-0.1,0.2c-0.3,0-0.5,0.1-0.8,0.2c0,0-1.3,2.6-2.6,3s-0.9,1.8,2.1,1.3
		s7.3-0.9,7.3-0.9l0.2-2.6l0.9-1.1l-0.2,2.6l1-0.2L229,174l1.5-1.8c0,0,1.8-1.6-0.9-4.7v0.1c0,0-0.1-0.1-0.1-0.1v0
		c-0.4-0.7-0.8-1.9-0.1-4.2c1.1-4,1.8-7.7,1.8-7.7s2.6-9.8-0.5-14.4h0.1c-0.3-0.7-0.5-1.3-0.7-2.1c0-0.1,0-0.2,0-0.3
		c2.2-0.1,4.3-0.5,6.3-1.4C236.4,137.4,235.3,114.1,234.4,110.4z M205.5,94.2L205.5,94.2l-0.5,0.1L205.5,94.2z M203.9,94.4
		c-0.1,0-0.1,0.1-0.2,0.1c-0.2,0.3-0.3,0.6-0.4,1l-0.7-0.2c0,0-0.5-0.1-1.3-0.2l-0.3-0.4C201.9,94.7,202.9,94.5,203.9,94.4
		L203.9,94.4z"/>
	<path id="Path_463" class="st13" d="M228,174.1l-0.3,3.3l0.9-0.2l-0.1-3.6L228,174.1z"/>
	<path id="Path_464" class="st14" d="M206.7,158.3c-1.1,3.2-0.8,7.5-0.6,9.6c0.1,0.8,0.2,1.3,0.2,1.3s-1.7,3.8-1.8,4s-5,3.1-5,3.1
		l-3.4,2c0,0-3.4-1.5-1.8-2c0.3-0.1,0.6-0.3,0.9-0.6c1.4-1.7,2.7-3.5,3.7-5.4c0.1-1,0.3-2,0.7-2.9c0.5-0.9,0.3-10.8,0.3-10.8l0-16
		v-2.1l6.4,0c0,0.7,0.1,1.4,0.3,2.1c0.2,1.2,0.5,2.4,0.9,3.5C208.7,147.8,208.3,153.9,206.7,158.3z"/>
	<path id="Path_465" class="st3" d="M206.4,169.2c0,0-1.7,3.8-1.8,4s-5,3.1-5,3.1l-3.4,2c0,0-3.4-1.5-1.8-2c0.3-0.1,0.6-0.3,0.9-0.6
		l0.1,1l1.1,0l9.6-8.6C206.3,168.7,206.4,169.2,206.4,169.2z"/>
	<path id="Path_466" class="st13" d="M206.2,168.2l-9.7,8.7l-1.1,0l-0.2-1.6c0,0-2,2.5-6.3,2.4c0,0-2.6,1.7,1.3,1.8s8.8-0.1,8.8-0.1
		s3.5-5.4,6.4-4.7v4.1h0.9v-4.1c0.8-0.6,1.4-1.4,1.6-2.4c0.2-1-0.2-2.1-1-2.7C206.4,169.1,206.2,168.7,206.2,168.2z"/>
	<path id="Path_467" class="st14" d="M228.9,163.3c-0.6,2.2-0.3,3.5,0.1,4.1v0c0.5,0.8,0.9,1.8,1.1,2.7l0,0.2l-4.4,6.4l-2.4,0.9
		c0,0-3.8-1.3-3.1-1.7c0.3-0.4,0.6-0.8,0.8-1.3c0.9-2,2.2-5.8,2.2-5.8v0c0.1-1.5,0.4-3.1,0.6-4.6c0.4-2.8-0.4-9.5-0.4-9.5
		s-0.3-8.2-0.9-10.1c-0.3-1-0.5-1.9-0.5-2.9c-0.1-1.2-0.2-2.1-0.2-2.1s2.5-3.5,7.2,0.3c0.4,0.3,0.7,0.7,1,1
		c3.2,4.5,0.6,14.6,0.6,14.6S230.1,159.3,228.9,163.3z"/>
	<path id="Path_468" class="st3" d="M230.2,170.4l-4.4,6.4l-2.4,0.9c0,0-3.8-1.3-3.1-1.7c0.3-0.4,0.6-0.8,0.8-1.3
		c1,0.1,2,0.6,2.5,1.5l2.1-0.3c0,0,2.7-5.3,3.3-5.7s0.1-2.4,0.1-2.4v-0.5c0,0,0,0,0,0.1v0c0.5,0.8,0.9,1.8,1.1,2.7L230.2,170.4z"/>
	<path id="Path_469" class="st13" d="M223.7,176.5c-0.7-1.2-2.1-1.8-3.4-1.4c0,0-1.3,2.6-2.5,3s-0.8,1.8,2,1.3s7.2-0.9,7.2-0.9
		l0.2-2.6l2.9-3.7c0,0,1.7-1.6-0.8-4.6v0.5c0,0,0.5,2.1-0.1,2.4s-3.3,5.7-3.3,5.7L223.7,176.5z"/>
	<path id="Path_470" class="st3" d="M206.5,138.5c0,0.7,0.1,1.4,0.3,2.1c-2.2-0.3-4.5-0.3-6.7-0.1v-2.1L206.5,138.5z"/>
	<path id="Path_471" class="st3" d="M230.3,141.7c0,0-3.7,0.2-8.2,0.2c-0.1-1.2-0.2-2.1-0.2-2.1s2.5-3.5,7.2,0.3
		c0.4,0.3,0.7,0.7,1,1C230.2,141.3,230.2,141.5,230.3,141.7z"/>
	<path id="Path_472" class="st13" d="M230.3,141.3c0,0-16.4,0.8-21.4-0.6s-10-0.2-10.7-0.5s-0.1-5.4,0.5-6.7s4.3-14,4.3-14l3.5-18
		l3.6-1l0.3-0.1l6.4-1.8l4.7-1.3c0,0,9.3,36.1,8.5,38.8c-0.3,1-0.3,2.1-0.1,3.1C229.8,139.9,230,140.6,230.3,141.3z"/>
	<path id="Path_473" class="st15" d="M194.4,89c0,0-3.3,3.5-0.8,5.5s4.1,0.2,4.1,0.2L194.4,89z"/>
	<path id="Path_474" class="st3" d="M194.4,89c0,0-3.3,3.5-0.8,5.5s4.1,0.2,4.1,0.2L194.4,89z"/>
	<path id="Path_475" class="st14" d="M220.9,66c0,0-0.4,0.4-1,0.9c-0.8,0.8-2,1.9-3.1,2.8c-1.5,1.3-2.7,2.3-2.3,1.4
		c0.4-1.2,0.4-2.4,0.1-3.6c0-0.1,0-0.2,0-0.3c-0.2-1-0.4-1.9-0.7-2.9c1.2-1.5,2.4-3,3.8-4.4c0.5-0.5,0.8-0.7,0.9-0.3
		c0.2,0.8,0.4,1.7,0.8,2.4c0,0,0,0.1,0,0.1c0.3,0.7,0.6,1.4,0.8,2C220.5,65.2,220.9,66,220.9,66z"/>
	<path id="Path_476" class="st3" d="M219.3,62.2c-0.5,2.5-2.2,4.5-4.7,5.3c-0.2-1.1-0.4-2.1-0.8-3.2c0,0,4.6-5.9,4.6-4.7
		C218.6,60.6,218.9,61.4,219.3,62.2z"/>
	<path id="Path_477" class="st3" d="M214.2,69.1l0.6-0.8c0,0,0.4,2.4,1.8,1.3s1.5,7.9,1.5,7.9l-1.5,23.1l-11.1-0.7l0.3-11.1l1.3-5.6
		l3.1-8.2l1.9-2.7L214.2,69.1z"/>
	<path id="Path_478" class="st13" d="M218.1,77.7l-1.4,20.9l-0.1,2.2l-6.2-0.4l-0.2,0l-4.7-0.3l0.3-11.1l1.3-5.6l3.1-8.2l1.9-2.7
		l2.2-3.2l0.6-0.8c0,0,0.4,2.4,1.8,1.3l0,0l0,0C218,68.9,218.1,77.7,218.1,77.7z"/>
	<path id="Path_479" class="st2" d="M207.2,81.4c-0.3,0.6-1,1-1.7,1c-1.1-0.2-1.1,4.2-1.1,4.2s-0.7,0.7-1.3,0.1s-1.9,1.5-1.9,1.5
		l-8.5,0.4c0,0,3.8,1.7,3,7c0,0,12.9-0.8,13.3-2S207.2,81.4,207.2,81.4z"/>
	<path id="Path_480" class="st16" d="M207.2,81.4c-0.3,0.6-1,1-1.7,1c-1.1-0.2-1.1,4.2-1.1,4.2s-0.7,0.7-1.3,0.1s-1.9,1.5-1.9,1.5
		l-8.5,0.4c0,0,3.8,1.7,3,7c0,0,12.9-0.8,13.3-2S207.2,81.4,207.2,81.4z"/>
	<path id="Path_481" class="st2" d="M182.4,91.2l2.2,1.9l18.5,3.9l-2.3-2.3L182.4,91.2z"/>
	<path id="Path_482" class="st2" d="M214.2,69.9c-0.7,1.6-1.4,3.3-1.9,5c-0.6,1.7-1.1,3.3-1.1,3.3s-1.2,7.8-1.8,9.2
		s-0.3,6.9-0.3,6.9l-2.3,13.5c-0.6,3.8-1.4,7.5-2.6,11.1c-0.8,2.2-1.9,4.3-3.4,6.1c0.7-1,4.5-19.7,4.5-19.7l1.3-23.6
		c0,0,0.2-2.2,0.4-4.2s4-4.5,4-4.5l3.7-5.2C215,68.2,214.8,69,214.2,69.9z"/>
	<path id="Path_483" class="st14" d="M204.7,100.2c0,0-5.4-0.2-8-3.4s6-1.3,6-1.3l2.2,0.5L204.7,100.2z"/>
	<path id="Path_484" class="st3" d="M229.8,136.1c-0.3,1-0.3,2.1-0.1,3.1c-4.1,0.2-8.2-0.2-12.2-1.2c-1.3,1-2.8,1.9-4.3,2.7
		l-1.7-20.8c-1.1-2.8-1.5-17.5-1.5-17.5s0.1-0.8,0.2-1.9c0,0,0-0.1,0-0.1c0.4-3.2,1.3-9.3,1.7-10.1c0.6-1.1-1.7-4.1-1.7-4.1l1-8.9
		l0.1-1.1c2.2-1,3.9-4.1,3.9-4.1l1.3-2.3l0,0c1.4-0.9,1.5,7.9,1.5,7.9l-1.4,20.9l4.7-1.3C221.3,97.3,230.6,133.4,229.8,136.1z"/>
	<path id="Path_485" class="st2" d="M235.8,137.5c-6.4,3.2-18,0.2-18,0.2c-1.3,1-2.8,1.9-4.3,2.7l-1.7-20.8
		c-1.1-2.8-1.5-17.5-1.5-17.5s1.4-11,1.9-12.1c0.1-0.4,0.1-0.9-0.1-1.3c-1-2.5-1.3-5.2-1-7.8l0.4-3.8l0.1-1.1c2.2-1,3.9-4.1,3.9-4.1
		l1.2-2.1l2.2-3.8l1-1.8l0.2,0.2l1.3,1.2l1.4,1.2c1.8,1.5,5,4.3,6.6,5.9c1.4,1.5,1.9,7.2,2,11.5c0.1,2.8,0,5,0,5
		c-1.4,2.4,2.3,21.5,2.3,21.5C234.8,114.3,235.8,137.5,235.8,137.5z"/>
	<path id="Path_486" class="st16" d="M223.6,71.7c0,0-4.4,8.4-3.9,11.5s2,6.8,1.3,7.6c-0.5,0.6-1.2,1-2.1,1c-1,0.3-1.8,0.8-2.6,1.5
		c-1.1,0.2-2.2,0.5-3.3,0.8c-1.2,0.5-2.5,0.8-3.8,1c0,0-4.4-0.1-4.9,0.3s-0.8,2.9,0,5s1.9,3.5,2.6,3.8s5.5-1.3,9.3-1.7s8-3.4,8-3.4
		s4.6-1.6,5.4-4.4s-1-17.9-1-17.9S227.3,69.8,223.6,71.7z"/>
	<path id="Path_487" class="st16" d="M223,71c0,0-4.4,8.4-3.9,11.5s2,6.8,1.3,7.6c-0.5,0.6-1.2,1-2.1,1c-1,0.3-1.8,0.8-2.6,1.5
		c-1.1,0.2-2.2,0.5-3.3,0.8c-1.2,0.5-2.5,0.8-3.8,1c0,0-4.4-0.1-4.9,0.3s-0.8,2.9,0,5s1.9,3.5,2.6,3.8s5.5-1.3,9.3-1.7s8-3.4,8-3.4
		s4.6-1.6,5.4-4.4s-1-17.9-1-17.9S226.8,69.1,223,71z"/>
	<path id="Path_488" class="st2" d="M223.4,71.3c0,0-4.4,8.4-3.9,11.5s2,6.8,1.3,7.6c-0.5,0.6-1.2,1-2.1,1c-1,0.3-1.8,0.8-2.6,1.5
		c-1.1,0.2-2.2,0.5-3.3,0.8c-1.2,0.5-2.5,0.8-3.8,1c0,0-4.4-0.1-4.9,0.3s-0.8,2.9,0,5s1.9,3.5,2.6,3.8s5.5-1.3,9.3-1.7s8-3.4,8-3.4
		s4.6-1.6,5.4-4.4s-1-17.9-1-17.9S227.2,69.4,223.4,71.3z"/>
	<path id="Path_489" class="st3" d="M223.3,93.7c0,0-3.5-0.7-2.3,0.5s1.2,2.2,2.7,2.1S223.3,93.7,223.3,93.7z"/>
	<path id="Path_490" class="st3" d="M229.3,118.9c0,0-1.6,1.1,1.4,3.6C233.7,124.9,229.3,118.9,229.3,118.9z"/>
	<path id="Path_491" class="st3" d="M226.2,127.7c0,0.1-0.6,5.2,1.5,6.4S226.2,127.7,226.2,127.7z"/>
	<path id="Path_492" class="st14" d="M192.8,88.5c-1.7,0.1-5.4,0.6-3.5,4.1c1.7,3.1,4.5,1,6.1-0.5C195.1,90.6,194.1,89.3,192.8,88.5
		L192.8,88.5z"/>
	<path id="Path_493" class="st14" d="M195.7,91.9"/>
	<path id="Path_494" class="st14" d="M195.5,92L195.5,92L195.5,92z"/>
	<path id="Path_495" class="st3" d="M222.9,66.8c-1.8,1.2-3.3,2.3-3.6,2.5c-0.8,0.6-2.3,4.1-3.3,5.9c-0.8,1.4-3.4,1.8-4.3,1.9
		l0.1-1.1c2.2-1,3.9-4.1,3.9-4.1l4.3-7.6l1.5,1.4L222.9,66.8z"/>
	<path id="Path_496" class="st17" d="M222.9,66.7c-1.8,1.2-3.3,2.3-3.6,2.5c-0.8,0.6-2.3,4.1-3.3,5.9c-0.8,1.4-3.4,1.8-4.3,1.9
		l0.1-1.1c2.2-1,3.9-4.1,3.9-4.1l4.3-7.6l1.5,1.4C221.5,65.5,222,66,222.9,66.7z"/>
	<path id="Path_497" class="st14" d="M219.4,60.7c0,3.8-3.1,6.9-6.9,6.9s-6.9-3.1-6.9-6.9c0-3.8,3.1-6.9,6.9-6.9c0.3,0,0.7,0,1,0.1
		C216.9,54.3,219.4,57.3,219.4,60.7z"/>
	<path id="Path_498" class="st3" d="M231.5,84.1c-1-0.6-1.7-1.4-2.2-2.4c-0.3-0.8-0.7-1.6-1.3-2.2c-0.7-0.4-1.4-0.7-2.2-0.8
		c-2.5-0.7-4.4-2.9-4.6-5.5c0.1-1.2,0.2-2.4,0.2-3.6c-0.1-0.7-0.4-1.3-0.8-1.9c-0.2-0.3-0.4-0.5-0.7-0.7c-0.3-0.3-0.7-0.6-1-0.9
		c-0.2-0.2-0.4-0.4-0.5-0.7c-0.1-0.2-0.2-0.4-0.3-0.6c-0.5-1.4,0-3.1-0.6-4.6l0-0.1c-0.1-0.5-0.6-1-1.1-1.1c-0.5,0-1,0.4-1.5,0.6
		c-1.1,0.4-2.3-0.3-3.2-1s-1.9-1.6-3.1-1.4c-0.7,0.2-1.4,0.5-2.1,0.9c-0.2,0.1-0.3,0.1-0.5,0.1c1.4-3.6,5.5-5.3,9-3.9
		c2.6,1.1,4.4,3.6,4.4,6.4c0,0.5-0.1,1-0.2,1.4c0,0,0,0.1,0,0.1c0.3,0.7,0.6,1.4,0.8,2l1.3,1.2l1.4,1.2c1.8,1.5,5,4.3,6.6,5.9
		C230.9,74.1,231.4,79.8,231.5,84.1z"/>
	<path id="Path_499" class="st18" d="M206.4,53.7c0.3-0.7,0.5-1.4,0.9-2.1c0.6-0.9,1.6-1.6,2.7-1.9c2.8-0.9,8.6-2.3,10.3,0
		c0.3,0.5,0.7,0.9,1.1,1.3c0.4,0.2,0.8,0.4,1.2,0.5c1.1,0.6,1.9,1.6,2.2,2.8c0.4,1.2,0.5,2.4,0.8,3.6c0.4,1.5,0.9,3,1.6,4.4
		c0.6,1.8,1.6,3.4,2.9,4.7c1.9,1.6,2.3,4,4.1,5.8c2.1,2.1,2,5.7,1,8.5c-0.2,0.4-0.3,0.7-0.2,1.1c0.1,0.4,0.3,0.8,0.6,1.1l1.2,1.3
		c-2.8,0.6-5.7-0.7-7.1-3.3c-0.3-0.8-0.7-1.6-1.3-2.2c-0.7-0.4-1.4-0.7-2.2-0.8c-2.5-0.7-4.4-2.9-4.6-5.5c0.1-1.2,0.2-2.4,0.2-3.6
		c-0.1-0.7-0.4-1.3-0.8-1.9c-0.6-0.8-1.6-1.4-2.1-2.3c-0.9-1.6-0.2-3.6-0.9-5.3c-0.1-0.5-0.6-1-1.1-1.1c-0.5,0-1,0.4-1.5,0.6
		c-1.1,0.4-2.3-0.3-3.2-1s-1.9-1.6-3.1-1.4c-0.7,0.2-1.4,0.5-2.1,0.9c-0.5,0.2-1.6,0.4-2-0.1C203.8,56.8,206,54.5,206.4,53.7z"/>
	<path id="Path_500" class="st3" d="M230.2,80.7c-0.3-0.8-0.7-1.6-1.3-2.2c-0.7-0.4-1.4-0.7-2.2-0.8c-2.5-0.7-4.4-2.9-4.6-5.5
		c0.1-1.2,0.2-2.4,0.2-3.6c-0.1-0.7-0.4-1.3-0.8-1.9c-0.6-0.8-1.6-1.4-2.1-2.3c-0.9-1.6-0.2-3.6-0.9-5.3c-0.1-0.5-0.6-1-1.1-1.1
		c-0.5,0-1,0.4-1.5,0.6c-1.1,0.4-2.3-0.3-3.2-1s-2-1.6-3.1-1.4c-0.7,0.2-1.4,0.5-2.1,0.9c-0.5,0.2-1.6,0.4-2-0.1
		c-1-0.9,1.3-3.2,1.7-4.1c0.3-0.7,0.6-1.4,0.9-2.1c0,0,0-0.1,0.1-0.1c-0.3,0.2-0.6,0.5-0.8,0.9c-0.3,0.7-0.6,1.4-0.9,2.1
		c-0.4,0.8-2.7,3.1-1.7,4.1c0.5,0.4,1.5,0.3,2,0.1c0.7-0.4,1.4-0.7,2.1-0.9c1.2-0.2,2.2,0.7,3.1,1.4s2.1,1.5,3.2,1
		c0.5-0.2,1-0.7,1.5-0.6c0.6,0.1,1,0.5,1.1,1.1c0.6,1.7,0,3.7,0.9,5.3c0.5,0.9,1.5,1.5,2.1,2.3c0.4,0.5,0.7,1.2,0.8,1.9
		c0,1.2,0,2.4-0.2,3.6c0.2,2.6,2.1,4.8,4.6,5.5c0.8,0.1,1.5,0.4,2.2,0.8c0.6,0.6,1,1.4,1.3,2.2c1.4,2.5,4.3,3.9,7.1,3.3l-0.5-0.6
		C233.6,84.2,231.4,82.8,230.2,80.7z"/>
	<path id="Path_501" class="st3" d="M214.1,70c-0.7,1.6-1.4,3.3-1.9,5c-0.7-0.3-1.3-2-1.3-2l3.7-5.2C214.9,68.3,214.6,69.2,214.1,70
		z"/>
	<path id="Path_502" class="st17" d="M214.2,69.9c-0.7,1.6-1.4,3.3-1.9,5c-0.7-0.3-1.3-2-1.3-2l3.7-5.2
		C215,68.2,214.8,69,214.2,69.9z"/>
	<path id="Path_503" class="st19" d="M192.9,93.8l-2-6.4c-0.1-0.3,0.1-0.7,0.4-0.8l0,0c0.3-0.1,0.6,0.1,0.7,0.4l2,6.4l-0.2,1.3
		L192.9,93.8z"/>
	<path id="Path_504" class="st20" d="M191.1,86.8L191.1,86.8c0.3-0.1,0.7,0.1,0.8,0.4l2,6.4l-0.2,1l0.1,0.2l0.2-1.3l-2-6.4
		c-0.1-0.3-0.4-0.5-0.7-0.4l0,0c-0.1,0-0.2,0.1-0.3,0.2C191,86.9,191.1,86.9,191.1,86.8L191.1,86.8z"/>
	<path id="Path_505" class="st21" d="M192.9,93.8l1.1-0.4l-0.2,1.1l0,0.2l-0.3-0.3L192.9,93.8z"/>
	<path id="Path_506" class="st22" d="M193.6,94.4C193.6,94.4,193.6,94.4,193.6,94.4c0.1-0.1,0.1-0.1,0.2-0.1c0,0,0,0,0,0.1
		c0,0.1,0.1,0.1,0.1,0.1l0,0.2L193.6,94.4z"/>
	<path id="Path_507" class="st14" d="M190.9,89.7c0,0,4.1,0,3.1,1.7c-0.5,1-1.4,1.7-2.5,1.9L190.9,89.7z"/>
	<path id="Path_508" class="st5" d="M165.6,12h-0.2c-6.8,0-13,3.5-16.7,9.2c-3.7-5.7-10-9.1-16.7-9.2h-0.2
		c-10.9,0.1-19.7,9-19.7,19.9c0,6.5,2.9,15.7,8.4,23.4c10.6,14.5,28.2,27.2,28.2,27.2s17.6-12.7,28.2-27.2
		c5.6-7.6,8.4-16.8,8.4-23.4C185.3,21,176.5,12.1,165.6,12L165.6,12z M163.1,56.4c-1.6,0-3.1-1-3.7-2.5h-4.2c-0.6,0-1.1-0.4-1.2-0.9
		l-1.3-3.9l-4.1,14.2c-0.2,0.6-0.7,0.9-1.3,0.9h-0.1c-0.6,0-1.1-0.5-1.2-1.1L141.9,38l-3.1,14.9c-0.1,0.6-0.7,1-1.3,1h-5.9
		c-0.7,0-1.3-0.5-1.4-1.2c0-0.7,0.5-1.3,1.2-1.4c0,0,0.1,0,0.1,0h4.9l4.3-20c0.2-0.7,0.9-1.1,1.6-1c0.5,0.1,0.9,0.6,1,1.1l4.3,25.7
		l3.6-12.7c0.2-0.5,0.7-0.9,1.2-0.9h0c0.6,0,1.1,0.4,1.2,0.9l2.3,7h3.2c0.7-2.1,2.9-3.2,5-2.5c2.1,0.7,3.2,2.9,2.5,5
		C166.3,55.3,164.8,56.4,163.1,56.4L163.1,56.4z"/>
	<ellipse id="Ellipse_14" class="st23" cx="102.5" cy="217.3" rx="72" ry="7"/>
	<path id="Path_509" class="st23" d="M184.2,205.4c45.2,0,45.2,11.6,0,11.6s-81.9-2.6-81.9-5.8S139,205.4,184.2,205.4z"/>
</g>
<image style="overflow:visible;" width="104" height="90" xlink:href="../../../../Assets/imgs/logo.png"  transform="matrix(4.196353e-02 -2.457145e-03 2.457145e-03 4.196353e-02 92.5675 76.4154)">
</image>
<image style="overflow:visible;" width="104" height="90" xlink:href="../../../../Assets/imgs/logo.png"  transform="matrix(3.905730e-02 4.085893e-03 -4.124194e-03 3.942342e-02 213.9185 79.9993)">
</image>
</svg>
