<svg xmlns="http://www.w3.org/2000/svg" width="14.793" height="18.336" viewBox="0 0 14.793 18.336">
  <g id="placeholder" transform="translate(0.15 0.15)">
    <path id="Path_3" data-name="Path 3" d="M12.231,2.211a7.053,7.053,0,0,0-10.256,0l0,0A7.637,7.637,0,0,0-.143,7.533a7.638,7.638,0,0,0,2.116,5.32l4.806,5.009a.45.45,0,0,0,.636.013l.013-.013,4.806-5.009a7.639,7.639,0,0,0,2.116-5.32,7.638,7.638,0,0,0-2.116-5.32ZM11.584,12.23,7.1,16.9,2.622,12.23a6.85,6.85,0,0,1,0-9.392l0,0a6.153,6.153,0,0,1,8.961,0l0,0a6.85,6.85,0,0,1,0,9.392Zm0,0" transform="translate(0.143 0)" fill="#63c984" stroke="#63c984" stroke-width="0.3"/>
    <path id="Path_4" data-name="Path 4" d="M7.813,3.357a4.05,4.05,0,1,0,4.05,4.05,4.05,4.05,0,0,0-4.05-4.05Zm0,7.2a3.15,3.15,0,1,1,3.15-3.15A3.15,3.15,0,0,1,7.813,10.557Zm0,0" transform="translate(-0.567 -0.61)" fill="#63c984" stroke="#63c984" stroke-width="0.3"/>
  </g>
</svg>
