<svg id="calendar" xmlns="http://www.w3.org/2000/svg" width="21.475" height="22.373" viewBox="0 0 21.475 22.373">
  <path id="Path_510" data-name="Path 510" d="M21.411,8.288V4.837a2.461,2.461,0,0,0-2.458-2.458h-.647V1.991a2,2,0,0,0-4,0v.388H7.073V1.991a2,2,0,0,0-4,0v.388H2.423A2.461,2.461,0,0,0-.035,4.837V19.915a2.461,2.461,0,0,0,2.458,2.458h16.53a2.461,2.461,0,0,0,2.458-2.458V8.643a.554.554,0,0,0,0-.355ZM16.3,1.109a.883.883,0,0,1,.882.882V3.169a.882.882,0,0,1-1.764,0V1.991A.883.883,0,0,1,16.3,1.109ZM4.189,1.991a.882.882,0,0,1,1.764,0V3.169a.882.882,0,0,1-1.764,0ZM2.423,3.5H3.1a2,2,0,0,0,3.947,0H14.33a2,2,0,0,0,3.947,0h.675a1.341,1.341,0,0,1,1.339,1.339V7.906H1.084V4.837A1.341,1.341,0,0,1,2.423,3.5Zm16.53,17.756H2.423a1.341,1.341,0,0,1-1.339-1.339V9.025H20.291v10.89a1.341,1.341,0,0,1-1.339,1.339Zm0,0" transform="translate(0.035 0)" fill="#34c759"/>
</svg>
