<svg id="gender" xmlns="http://www.w3.org/2000/svg" width="17.99" height="18" viewBox="0 0 17.99 18">
  <g id="Group_86" data-name="Group 86" transform="translate(0)">
    <g id="Group_85" data-name="Group 85">
      <path id="Path_540" data-name="Path 540" d="M9.493,4.755A4.743,4.743,0,1,0,4.011,9.441v5.293H2.079v1.405H4.011V18H5.417V16.139H7.349V14.734H5.417V9.451A4.75,4.75,0,0,0,9.493,4.755ZM4.749,8.093A3.338,3.338,0,1,1,8.087,4.755,3.342,3.342,0,0,1,4.749,8.093Z" transform="translate(-0.006 -0.002)" fill="#63c984"/>
      <path id="Path_541" data-name="Path 541" d="M15.337,8.56V2.69l1.23,1.23.994-.994L14.634,0,11.708,2.926l.994.994,1.23-1.23v5.88a4.744,4.744,0,1,0,1.405-.01Zm-.668,8.034a3.338,3.338,0,1,1,3.338-3.338A3.342,3.342,0,0,1,14.67,16.595Z" transform="translate(-1.423)" fill="#63c984"/>
    </g>
  </g>
</svg>
