<svg xmlns="http://www.w3.org/2000/svg" width="17.957" height="19" viewBox="0 0 17.957 19">
  <path id="headphones" d="M15.087,8.65H14.8v-2.3a6.348,6.348,0,1,0-12.7,0v2.3H1.815A1.846,1.846,0,0,0-.03,10.495v1.9a1.846,1.846,0,0,0,1.845,1.845H3.473a.425.425,0,0,0,.424-.424V9.074a.425.425,0,0,0-.424-.424H2.947v-2.3a5.5,5.5,0,0,1,11,0v2.3h-.526A.425.425,0,0,0,13,9.074v4.741a.425.425,0,0,0,.424.424h.526V14.8a1.291,1.291,0,0,1-1.289,1.289h-.831a.582.582,0,0,0-.123.017,1.486,1.486,0,0,0-1.429-1.077H8.188a1.484,1.484,0,1,0,0,2.968h2.086A1.491,1.491,0,0,0,11.7,16.923a.39.39,0,0,0,.123.017h.831A2.139,2.139,0,0,0,14.794,14.8v-.564h.288a1.846,1.846,0,0,0,1.845-1.845V10.5a1.84,1.84,0,0,0-1.84-1.849ZM3.049,13.391H1.815a1,1,0,0,1-1-1V10.5a1,1,0,0,1,1-1H3.049Zm7.23,3.761H8.192a.636.636,0,1,1,0-1.272h2.086a.636.636,0,1,1,0,1.272Zm5.8-4.758a1,1,0,0,1-1,1H13.853V9.5h1.234a1,1,0,0,1,1,1Zm0,0" transform="translate(0.53 0.5)" fill="#63c984" stroke="#63c984" stroke-width="1"/>
</svg>
