<svg xmlns="http://www.w3.org/2000/svg" width="12.438" height="12.438" viewBox="0 0 12.438 12.438">
  <g id="photo" transform="translate(0.25 0.25)">
    <g id="Group_77" data-name="Group 77">
      <g id="Group_76" data-name="Group 76">
        <path id="Path_538" data-name="Path 538" d="M10.413,0H1.526A1.527,1.527,0,0,0,0,1.526v8.887a1.527,1.527,0,0,0,1.526,1.526h8.887a1.527,1.527,0,0,0,1.526-1.526V1.526A1.527,1.527,0,0,0,10.413,0Zm.822,10.413a.823.823,0,0,1-.822.822H1.526A.823.823,0,0,1,.7,10.413V9.13L3.018,7.161a.227.227,0,0,1,.293,0l1.45,1.2a.352.352,0,0,0,.473-.022l3.445-3.45a.228.228,0,0,1,.338.017l2.219,2.733v2.772Zm0-3.887L9.562,4.465a.931.931,0,0,0-1.381-.071L4.963,7.617l-1.2-1a.929.929,0,0,0-1.2.007L.7,8.207V1.526A.823.823,0,0,1,1.526.7h8.887a.823.823,0,0,1,.822.822Z" fill="#efeff4" stroke="#efeff4" stroke-width="0.5"/>
      </g>
    </g>
    <g id="Group_79" data-name="Group 79" transform="translate(2.063 1.469)">
      <g id="Group_78" data-name="Group 78">
        <path id="Path_539" data-name="Path 539" d="M4.114,1.723a1.7,1.7,0,1,0,1.7,1.7A1.7,1.7,0,0,0,4.114,1.723Zm0,2.688a.992.992,0,1,1,.992-.992A.993.993,0,0,1,4.114,4.41Z" transform="translate(-2.419 -1.723)" fill="#efeff4" stroke="#efeff4" stroke-width="0.5"/>
      </g>
    </g>
  </g>
</svg>
