<svg xmlns="http://www.w3.org/2000/svg" width="15.309" height="18.785" viewBox="0 0 15.309 18.785">
  <g id="notepad" transform="translate(0.15 0.15)">
    <path id="Path_559" data-name="Path 559" d="M12.674,1.255H9.455A2.3,2.3,0,0,0,7.369,0,2.3,2.3,0,0,0,5.282,1.255H2.063a2.122,2.122,0,0,0-2.2,2.03v13.17a2.122,2.122,0,0,0,2.2,2.03h10.61a2.123,2.123,0,0,0,2.2-2.03V3.285a2.122,2.122,0,0,0-2.2-2.03Zm-7.029.924a.493.493,0,0,0,.489-.363A1.244,1.244,0,0,1,7.369.924,1.244,1.244,0,0,1,8.6,1.816a.493.493,0,0,0,.489.363h.993v.406a1.156,1.156,0,0,1-1.2,1.106H5.849a1.156,1.156,0,0,1-1.2-1.106V2.179Zm8.228,14.276a1.156,1.156,0,0,1-1.2,1.106H2.063a1.156,1.156,0,0,1-1.2-1.106V3.285a1.156,1.156,0,0,1,1.2-1.106H3.65v.406a2.122,2.122,0,0,0,2.2,2.03H8.888a2.122,2.122,0,0,0,2.2-2.03V2.179h1.587a1.156,1.156,0,0,1,1.2,1.106Zm0,0" transform="translate(0.136 0)" stroke-width="0.3"/>
    <path id="Path_560" data-name="Path 560" d="M8.768,7.863,5.734,10.825l-1.541-1.5a.462.462,0,0,0-.652.655l.006.006L5.411,11.8a.462.462,0,0,0,.646,0L9.414,8.525a.462.462,0,0,0-.646-.661Zm0,0" transform="translate(1.023 0.676)" stroke-width="0.3"/>
  </g>
</svg>
