<svg id="name" xmlns="http://www.w3.org/2000/svg" width="17.843" height="23.826" viewBox="0 0 17.843 23.826">
  <path id="Path_283" data-name="Path 283" d="M10.288,14.519a2.713,2.713,0,1,0-2.713-2.713A2.713,2.713,0,0,0,10.288,14.519Zm0-4.372a1.664,1.664,0,1,1-1.664,1.664A1.663,1.663,0,0,1,10.288,10.147Zm0,0" transform="translate(-1.367 -2.871)" fill="#34c759"/>
  <path id="Path_284" data-name="Path 284" d="M9.911,17.187A4.072,4.072,0,0,0,6.962,18.42,4.353,4.353,0,0,0,5.745,21.5a.526.526,0,0,0,.525.525h7.284a.526.526,0,0,0,.525-.525,4.353,4.353,0,0,0-1.218-3.081,4.072,4.072,0,0,0-2.949-1.233ZM6.831,20.976a3.209,3.209,0,0,1,.882-1.821,3.091,3.091,0,0,1,4.4,0,3.226,3.226,0,0,1,.882,1.821Zm0,0" transform="translate(-0.99 -4.537)" fill="#34c759"/>
  <path id="Path_285" data-name="Path 285" d="M14.977,0H2.382A2.625,2.625,0,0,0-.242,2.624V21.2a2.625,2.625,0,0,0,2.624,2.624h12.6A2.625,2.625,0,0,0,17.6,21.2V2.624A2.625,2.625,0,0,0,14.977,0Zm1.574,21.2a1.579,1.579,0,0,1-1.574,1.574H2.382A1.579,1.579,0,0,1,.807,21.2V2.624A1.579,1.579,0,0,1,2.382,1.05h12.6a1.579,1.579,0,0,1,1.574,1.574Zm0,0" transform="translate(0.242)" fill="#34c759"/>
</svg>
